<?xml version="1.0" encoding="UTF-8"?>
<!-- Created with Inkscape (http://www.inkscape.org/) -->
<svg width="379.22mm" height="94.289mm" version="1.1" viewBox="0 0 379.22 94.289" xml:space="preserve" xmlns="http://www.w3.org/2000/svg"><g transform="translate(1.2161)" fill="#1a1a1a"><path transform="scale(1.0924 .91541)" d="m251.7 82.673c-0.58064 0-1.1065 0.15675-1.5776 0.47081-0.47109 0.3104-0.84548 0.77239-1.123 1.3859-0.27389 0.60985-0.41108 1.3568-0.41108 2.2406 0 0.8947 0.13719 1.6708 0.41108 2.3281 0.27754 0.65733 0.63155 1.1356 1.0625 1.435 0.43456 0.2958 0.95688 0.44371 1.5667 0.44371 0.69384 0 1.282-0.22088 1.764-0.66275 0.48569-0.44552 0.8254-1.119 1.0189-2.021l-0.87656-0.26871c-0.11685 0.68654-0.34893 1.1998-0.69585 1.5394-0.34327 0.33597-0.75235 0.50355-1.2271 0.50355-0.64272 0-1.1574-0.2736-1.5445-0.82138-0.38709-0.55142-0.5809-1.3768-0.5809-2.476 0-0.72671 0.09535-1.3272 0.28525-1.8019 0.19354-0.47474 0.45065-0.82386 0.77201-1.0466 0.32136-0.22641 0.70136-0.33928 1.1396-0.33928 0.88009 0 1.4662 0.5586 1.7583 1.6761l0.85433-0.2467c-0.18259-0.76688-0.50192-1.3471-0.9584-1.7415-0.45647-0.39805-1.0023-0.59726-1.6377-0.59726zm-111.48 0.093146-0.59746 1.5338h0.66842l0.98584-1.5338h-1.0568zm196.01 0-0.59699 1.5338h0.66842l0.98583-1.5338h-1.0573zm-230.5 0.043468v8.0308h0.87089v-3.6485h3.0895v-0.94783h-3.0895v-2.4867h3.5715v-0.94783h-4.4424zm18.712 0v2.8813c-0.14972-0.25198-0.33949-0.4472-0.56955-0.58597-0.22641-0.14242-0.47279-0.21339-0.73938-0.21339-0.37248 0-0.71219 0.11143-1.0189 0.3342-0.30311 0.22276-0.54591 0.56391-0.7285 1.024-0.18259 0.46013-0.2739 1.0207-0.2739 1.6817 0 0.96408 0.20455 1.7125 0.61355 2.2457 0.41265 0.52951 0.90029 0.79428 1.4627 0.79428 0.26658 0 0.51451-0.072961 0.74458-0.21903 0.23006-0.14972 0.41827-0.36518 0.56434-0.64637v0.73444h0.75594v-8.0308h-0.81081zm11.794 0v1.1341h0.80513v-1.1341h-0.80513zm40.897 0v8.0308h0.80513v-8.0308h-0.80513zm4.7215 0v8.0308h2.3775c0.67559 0 1.2214-0.13167 1.6377-0.3946 0.41996-0.26658 0.76325-0.71574 1.0298-1.3475 0.26658-0.63542 0.4002-1.408 0.4002-2.3174 0-0.70845-0.07855-1.3198-0.23558-1.8347-0.15703-0.51856-0.37635-0.94805-0.65754-1.2877s-0.61327-0.57332-0.99671-0.70113c-0.29215-0.098599-0.71959-0.1479-1.282-0.1479h-2.2735zm32.593 0v8.0308h0.80513v-8.0308h-0.80513zm2.0431 0v8.0308h0.8056v-8.0308h-0.8056zm12.78 0v2.8813c-0.14972-0.25198-0.33996-0.4472-0.57002-0.58597-0.22642-0.14242-0.4728-0.21339-0.73938-0.21339-0.37249 0-0.7122 0.11143-1.019 0.3342-0.3031 0.22276-0.5459 0.56391-0.72849 1.024-0.1826 0.46013-0.2739 1.0207-0.2739 1.6817 0 0.96408 0.20454 1.7125 0.61354 2.2457 0.41266 0.52951 0.90029 0.79428 1.4627 0.79428 0.26659 0 0.51499-0.072961 0.74506-0.21903 0.23006-0.14972 0.4178-0.36518 0.56387-0.64637v0.73444h0.75593v-8.0308h-0.81033zm9.7283 0v8.0308h0.80513v-8.0308h-0.80513zm16.378 0v1.1341h0.80513v-1.1341h-0.80513zm16.877 0v1.1341h0.80513v-1.1341h-0.80513zm16.855 0v8.0308h0.8056v-8.0308h-0.8056zm9.2192 0v0.94783h2.1694v7.083h0.87088v-7.083h2.1798v-0.94783h-5.2201zm24.891 0v8.0308h0.80513v-8.0308h-0.80513zm-140.49 0.94783h1.3804c0.50761 0 0.87795 0.053291 1.1117 0.15919 0.34692 0.15703 0.63001 0.4691 0.84912 0.93654 0.22276 0.46378 0.33398 1.1028 0.33398 1.9171 0 0.75958-0.10406 1.4114-0.31222 1.9555-0.15703 0.409-0.38147 0.70683-0.67362 0.89307-0.29214 0.18259-0.72113 0.27379-1.2872 0.27379h-1.4021v-6.1352zm-64.194 1.1341c-0.32866 0-0.62093 0.080369-0.87656 0.24105-0.25197 0.15703-0.46569 0.39614-0.64098 0.7175v-0.82702h-0.72849v5.8174h0.80513v-3.1771c0-0.70115 0.11526-1.1962 0.34532-1.4847 0.23007-0.28849 0.53867-0.43299 0.92576-0.43299 0.2045 0 0.38353 0.055285 0.53691 0.16484 0.15703 0.1059 0.27182 0.25724 0.34485 0.45444 0.07304 0.1972 0.10975 0.50927 0.10975 0.93654v3.539h0.81081v-3.5774c0-0.53682-0.03314-0.93468-0.09887-1.194-0.06573-0.25928-0.16622-0.46932-0.30133-0.63-0.13147-0.16433-0.30645-0.296-0.52556-0.3946-0.21546-0.10225-0.45111-0.15298-0.70674-0.15298zm10.019 0c-0.64272 0-1.1375 0.1425-1.4844 0.42734-0.34328 0.28484-0.57177 0.73942-0.68498 1.3639l0.79472 0.13153c0.08765-0.42726 0.22437-0.71768 0.41061-0.87105 0.18624-0.15703 0.46731-0.2354 0.84345-0.2354 0.4163 0 0.7249 0.11685 0.92575 0.35057 0.14242 0.16068 0.21382 0.4397 0.21382 0.83775l-0.00567 0.25234c-0.30676 0.13147-0.78879 0.24433-1.4461 0.33928-0.48934 0.069385-0.85456 0.1774-1.0956 0.32347-0.24102 0.14607-0.43078 0.34871-0.56955 0.60799s-0.20814 0.55654-0.20814 0.8925c0 0.5076 0.14792 0.91144 0.44372 1.2109s0.69212 0.44879 1.1888 0.44879c0.31406 0 0.61706-0.070968 0.9092-0.21339 0.29215-0.14242 0.57321-0.35446 0.84345-0.63565 0.02556 0.27754 0.08063 0.51722 0.16462 0.71807h0.84345c-0.10225-0.22641-0.17163-0.45868-0.20814-0.69605-0.03287-0.24102-0.0492-0.82128-0.0492-1.7415v-1.3148c0-0.53317-0.03874-0.93844-0.11543-1.216-0.07303-0.27754-0.25159-0.50981-0.53643-0.69605-0.28485-0.18989-0.6776-0.28452-1.1779-0.28452zm5.0285 0c-0.63907 0-1.1629 0.25393-1.572 0.76154-0.40535 0.50395-0.60834 1.2612-0.60834 2.2728 0 1.0042 0.20097 1.7641 0.60267 2.279 0.40535 0.51125 0.92052 0.76662 1.545 0.76662 0.5149 0 0.95462-0.1824 1.3198-0.54758 0.36884-0.36518 0.59889-0.89471 0.69018-1.5886l-0.79425-0.12589c-0.05843 0.49665-0.19717 0.86344-0.41628 1.1008-0.21546 0.23372-0.47662 0.35057-0.78337 0.35057-0.39074 0-0.7121-0.17699-0.96407-0.53121-0.24833-0.35423-0.37229-0.92764-0.37229-1.7201 0-0.76688 0.12956-1.3255 0.38884-1.6761 0.26293-0.35423 0.59347-0.53121 0.99151-0.53121 0.26659 0 0.49461 0.09861 0.68451 0.29581 0.18989 0.19355 0.32351 0.48738 0.4002 0.88178l0.78337-0.1479c-0.09495-0.61351-0.31225-1.0735-0.65187-1.3802-0.33596-0.30675-0.75065-0.46008-1.2436-0.46008zm6.6336 0c-0.64637 0-1.1814 0.25536-1.6051 0.76662-0.41996 0.51125-0.62963 1.2691-0.62963 2.2733 0 1.0006 0.2117 1.7584 0.63531 2.2733 0.42726 0.51125 0.96031 0.76662 1.5994 0.76662 0.65002 0 1.1851-0.25536 1.605-0.76662 0.41996-0.51126 0.63011-1.2893 0.63011-2.3337 0-0.96408-0.21372-1.7017-0.64099-2.2129-0.42726-0.51126-0.95876-0.76662-1.5942-0.76662zm5.4282 0c-0.32867 0-0.62046 0.080369-0.87609 0.24105-0.25197 0.15703-0.46569 0.39614-0.64098 0.7175v-0.82702h-0.7285v5.8174h0.80513v-3.1771c0-0.70115 0.11526-1.1962 0.34533-1.4847 0.23006-0.28849 0.53819-0.43299 0.92528-0.43299 0.20451 0 0.38354 0.055285 0.53691 0.16484 0.15703 0.1059 0.27229 0.25724 0.34533 0.45444 0.07304 0.1972 0.10927 0.50927 0.10927 0.93654v3.539h0.81081v-3.5774c0-0.53682-0.03266-0.93468-0.09839-1.194-0.06574-0.25928-0.16622-0.46932-0.30134-0.63-0.13146-0.16433-0.30692-0.296-0.52603-0.3946-0.21545-0.10225-0.4511-0.15298-0.70673-0.15298zm7.5432 0c-0.28849 0-0.54452 0.068974-0.76728 0.20774-0.22277 0.13877-0.42528 0.36562-0.60787 0.67968v-0.75589h-0.73938v8.0467h0.80513v-2.8322c0.15703 0.23372 0.34322 0.41469 0.55867 0.5425 0.21546 0.12781 0.44753 0.19137 0.69586 0.19137 0.55873 0 1.0443-0.26619 1.457-0.79936 0.41631-0.53682 0.62442-1.3 0.62442-2.2897 0-0.63907-0.09285-1.1854-0.27909-1.6382-0.1826-0.45648-0.42587-0.79563-0.72897-1.0184s-0.64234-0.3342-1.0185-0.3342zm5.0337 0c-0.64272 0-1.1375 0.1425-1.4844 0.42734-0.34327 0.28484-0.5713 0.73942-0.6845 1.3639l0.79425 0.13153c0.08764-0.42726 0.22436-0.71768 0.4106-0.87105 0.18625-0.15703 0.46779-0.2354 0.84392-0.2354 0.41631 0 0.72444 0.11685 0.92529 0.35057 0.14242 0.16068 0.21382 0.4397 0.21382 0.83775l-0.00521 0.25234c-0.30675 0.13147-0.78925 0.24433-1.4466 0.33928-0.48934 0.069385-0.85409 0.1774-1.0951 0.32347-0.24102 0.14607-0.43126 0.34871-0.57002 0.60799-0.13877 0.25928-0.20815 0.55654-0.20815 0.8925 0 0.5076 0.14793 0.91144 0.44372 1.2109 0.2958 0.29945 0.69213 0.44879 1.1888 0.44879 0.31405 0 0.61705-0.070968 0.9092-0.21339 0.29214-0.14242 0.57321-0.35446 0.84344-0.63565 0.02557 0.27754 0.08063 0.51722 0.16463 0.71807h0.84344c-0.10225-0.22641-0.17162-0.45868-0.20814-0.69605-0.03287-0.24102-0.0492-0.82128-0.0492-1.7415v-1.3148c0-0.53317-0.03826-0.93844-0.11495-1.216-0.07303-0.27754-0.25207-0.50981-0.53691-0.69605-0.28484-0.18989-0.67759-0.28452-1.1779-0.28452zm4.8478 0c-0.19355 0-0.36853 0.067545-0.52556 0.20266-0.15338 0.13147-0.32323 0.40165-0.50947 0.81065v-0.88178h-0.7285v5.8174h0.80513v-3.0456c0-0.42361 0.05102-0.82403 0.15327-1.2002 0.05843-0.21546 0.15891-0.38304 0.30133-0.50355s0.29952-0.18065 0.47116-0.18065c0.18989 0 0.38526 0.070967 0.58611 0.21339l0.27389-0.91452c-0.28119-0.21181-0.55713-0.31782-0.82736-0.31782zm3.3307 0c-0.64272 0-1.1375 0.1425-1.4844 0.42734-0.34327 0.28484-0.57177 0.73942-0.68498 1.3639l0.79425 0.13153c0.08765-0.42726 0.22484-0.71768 0.41108-0.87105 0.18625-0.15703 0.46731-0.2354 0.84345-0.2354 0.41631 0 0.72491 0.11685 0.92576 0.35057 0.14242 0.16068 0.21334 0.4397 0.21334 0.83775l-0.0052 0.25234c-0.30675 0.13147-0.78878 0.24433-1.4461 0.33928-0.48935 0.069385-0.85456 0.1774-1.0956 0.32347-0.24102 0.14607-0.43079 0.34871-0.56956 0.60799-0.13876 0.25928-0.20814 0.55654-0.20814 0.8925 0 0.5076 0.14793 0.91144 0.44372 1.2109 0.2958 0.29945 0.69166 0.44879 1.1883 0.44879 0.31406 0 0.61753-0.070968 0.90968-0.21339 0.29214-0.14242 0.57321-0.35446 0.84344-0.63565 0.02557 0.27754 0.08016 0.51722 0.16415 0.71807h0.84392c-0.10225-0.22641-0.1721-0.45868-0.20861-0.69605-0.03287-0.24102-0.0492-0.82128-0.0492-1.7415v-1.3148c0-0.53317-0.03826-0.93844-0.11495-1.216-0.07304-0.27754-0.25207-0.50981-0.53691-0.69605-0.28484-0.18989-0.67712-0.28452-1.1774-0.28452zm7.6028 0c-0.64638 0-1.1814 0.26476-1.6051 0.79428-0.41996 0.52586-0.62963 1.2905-0.62963 2.2948 0 0.96773 0.20812 1.7093 0.62443 2.2242 0.41996 0.51125 0.96778 0.76662 1.6434 0.76662 0.53682 0 0.98571-0.15675 1.3472-0.47081 0.36519-0.31771 0.61717-0.7871 0.75594-1.4079l-0.83257-0.12589c-0.23737 0.7961-0.65921 1.194-1.2654 1.194-0.38709 0-0.7156-0.16616-0.98583-0.49847-0.27024-0.33232-0.42174-0.82536-0.4546-1.479h3.5606l0.0052-0.2625c0-0.98234-0.20609-1.7327-0.61875-2.2513-0.41265-0.51856-0.92782-0.77791-1.545-0.77791zm16.357 0c-0.64637 0-1.1814 0.26476-1.6051 0.79428-0.41995 0.52586-0.6301 1.2905-0.6301 2.2948 0 0.96773 0.20859 1.7093 0.6249 2.2242 0.41996 0.51125 0.96731 0.76662 1.6429 0.76662 0.53682 0 0.98619-0.15675 1.3477-0.47081 0.36518-0.31771 0.61716-0.7871 0.75593-1.4079l-0.83257-0.12589c-0.23736 0.7961-0.6592 1.194-1.2654 1.194-0.3871 0-0.7156-0.16616-0.98584-0.49847-0.27023-0.33232-0.42173-0.82536-0.4546-1.479h3.5602l0.00568-0.2625c0-0.98234-0.20657-1.7327-0.61922-2.2513-0.41266-0.51856-0.92735-0.77791-1.5445-0.77791zm4.7821 0c-0.56238 0-1.0026 0.15532-1.3203 0.46573-0.3177 0.3104-0.47636 0.71368-0.47636 1.2103 0 0.28849 0.05817 0.54585 0.17503 0.77226s0.28159 0.40739 0.49339 0.5425c0.21181 0.13512 0.63162 0.29928 1.2597 0.49282 0.43457 0.13147 0.70848 0.24091 0.82169 0.32855 0.16433 0.12781 0.24646 0.30679 0.24646 0.53686 0 0.26658-0.09691 0.48746-0.29045 0.66275-0.1899 0.17164-0.46024 0.25742-0.81081 0.25742s-0.63164-0.09861-0.84345-0.29581c-0.2118-0.20085-0.34137-0.50552-0.38884-0.91452l-0.79993 0.15355c0.18259 1.2489 0.84568 1.8731 1.9887 1.8731 0.60985 0 1.0899-0.17157 1.4404-0.51484 0.35423-0.34327 0.53124-0.79243 0.53124-1.3475 0-0.29945-0.05459-0.5568-0.16415-0.77226-0.10955-0.21911-0.26308-0.39068-0.46028-0.51484-0.19719-0.12781-0.62976-0.29938-1.298-0.51484-0.4857-0.16068-0.77796-0.27753-0.87656-0.35057-0.16434-0.12416-0.24646-0.2943-0.24646-0.50976 0-0.21911 0.0857-0.39809 0.25734-0.53686 0.17163-0.14242 0.43279-0.21339 0.78337-0.21339 0.61715 0 0.96246 0.31749 1.0355 0.95291l0.78857-0.13153c-0.05477-0.4017-0.15323-0.71035-0.29565-0.92581s-0.34852-0.38703-0.61875-0.51484c-0.26658-0.12781-0.57721-0.19137-0.93143-0.19137zm5.0068 0c-0.64272 0-1.1375 0.1425-1.4844 0.42734-0.34327 0.28484-0.57177 0.73942-0.68497 1.3639l0.79424 0.13153c0.08765-0.42726 0.22484-0.71768 0.41108-0.87105 0.18625-0.15703 0.46731-0.2354 0.84345-0.2354 0.41631 0 0.72491 0.11685 0.92576 0.35057 0.14242 0.16068 0.21382 0.4397 0.21382 0.83775l-0.00568 0.25234c-0.30675 0.13147-0.78878 0.24433-1.4461 0.33928-0.48934 0.069385-0.85456 0.1774-1.0956 0.32347-0.24102 0.14607-0.43079 0.34871-0.56955 0.60799-0.13877 0.25928-0.20815 0.55654-0.20815 0.8925 0 0.5076 0.14793 0.91144 0.44372 1.2109 0.2958 0.29945 0.69166 0.44879 1.1883 0.44879 0.31406 0 0.61753-0.070968 0.90968-0.21339 0.29214-0.14242 0.57321-0.35446 0.84344-0.63565 0.02557 0.27754 0.08016 0.51722 0.16415 0.71807h0.84392c-0.10225-0.22641-0.17162-0.45868-0.20814-0.69605-0.03287-0.24102-0.04967-0.82128-0.04967-1.7415v-1.3148c0-0.53317-0.03826-0.93844-0.11495-1.216-0.07304-0.27754-0.25207-0.50981-0.53691-0.69605-0.28484-0.18989-0.67712-0.28452-1.1774-0.28452zm4.8478 0c-0.19355 0-0.369 0.067545-0.52603 0.20266-0.15338 0.13147-0.32323 0.40165-0.50948 0.81065v-0.88178h-0.72849v5.8174h0.80513v-3.0456c0-0.42361 0.05149-0.82403 0.15374-1.2002 0.05843-0.21546 0.15844-0.38304 0.30086-0.50355s0.29952-0.18065 0.47115-0.18065c0.1899 0 0.38526 0.070967 0.58611 0.21339l0.2739-0.91452c-0.28119-0.21181-0.55666-0.31782-0.82689-0.31782zm3.062 0c-0.19355 0-0.36901 0.067545-0.52603 0.20266-0.15338 0.13147-0.32324 0.40165-0.50948 0.81065v-0.88178h-0.72849v5.8174h0.80512v-3.0456c0-0.42361 0.0515-0.82403 0.15375-1.2002 0.05843-0.21546 0.15843-0.38304 0.30086-0.50355 0.14242-0.12051 0.29952-0.18065 0.47115-0.18065 0.1899 0 0.38526 0.070967 0.58611 0.21339l0.2739-0.91452c-0.28119-0.21181-0.55666-0.31782-0.82689-0.31782zm3.2319 0c-0.64637 0-1.1814 0.25536-1.6051 0.76662-0.41996 0.51125-0.6301 1.2691-0.6301 2.2733 0 1.0006 0.21169 1.7584 0.63531 2.2733 0.42726 0.51125 0.96078 0.76662 1.5998 0.76662 0.65002 0 1.1851-0.25536 1.605-0.76662 0.41996-0.51126 0.62963-1.2893 0.62963-2.3337 0-0.96408-0.21372-1.7017-0.64098-2.2129-0.42726-0.51126-0.95828-0.76662-1.5937-0.76662zm9.2022 0c-0.64638 0-1.181 0.25536-1.6046 0.76662-0.41996 0.51125-0.6301 1.2691-0.6301 2.2733 0 1.0006 0.2117 1.7584 0.63531 2.2733 0.42726 0.51125 0.96031 0.76662 1.5994 0.76662 0.65002 0 1.1851-0.25536 1.605-0.76662 0.41996-0.51126 0.6301-1.2893 0.6301-2.3337 0-0.96408-0.21372-1.7017-0.64098-2.2129-0.42726-0.51126-0.95876-0.76662-1.5942-0.76662zm12.818 0c-0.64637 0-1.1814 0.26476-1.605 0.79428-0.41996 0.52586-0.63011 1.2905-0.63011 2.2948 0 0.96773 0.20812 1.7093 0.62443 2.2242 0.41996 0.51125 0.96779 0.76662 1.6434 0.76662 0.53682 0 0.98619-0.15675 1.3477-0.47081 0.36518-0.31771 0.61716-0.7871 0.75593-1.4079l-0.83256-0.12589c-0.23737 0.7961-0.65921 1.194-1.2654 1.194-0.38709 0-0.7156-0.16616-0.98584-0.49847-0.27023-0.33232-0.4222-0.82536-0.45507-1.479h3.5606l0.00568-0.2625c0-0.98234-0.20657-1.7327-0.61922-2.2513-0.41266-0.51856-0.92735-0.77791-1.5445-0.77791zm9.7888 0c-0.64272 0-1.1375 0.1425-1.4844 0.42734-0.34327 0.28484-0.57177 0.73942-0.68497 1.3639l0.79425 0.13153c0.08764-0.42726 0.22483-0.71768 0.41108-0.87105 0.18624-0.15703 0.46731-0.2354 0.84344-0.2354 0.41631 0 0.72491 0.11685 0.92576 0.35057 0.14242 0.16068 0.21335 0.4397 0.21335 0.83775l-0.00521 0.25234c-0.30675 0.13147-0.78878 0.24433-1.4461 0.33928-0.48934 0.069385-0.85456 0.1774-1.0956 0.32347-0.24102 0.14607-0.43078 0.34871-0.56955 0.60799s-0.20814 0.55654-0.20814 0.8925c0 0.5076 0.14792 0.91144 0.44372 1.2109 0.29579 0.29945 0.69165 0.44879 1.1883 0.44879 0.31405 0 0.61752-0.070968 0.90967-0.21339 0.29214-0.14242 0.57321-0.35446 0.84345-0.63565 0.02556 0.27754 0.08015 0.51722 0.16414 0.71807h0.84345c-0.10225-0.22641-0.17162-0.45868-0.20814-0.69605-0.03287-0.24102-0.0492-0.82128-0.0492-1.7415v-1.3148c0-0.53317-0.03826-0.93844-0.11495-1.216-0.07304-0.27754-0.25207-0.50981-0.53691-0.69605-0.28484-0.18989-0.67712-0.28452-1.1774-0.28452zm16.285 0c-0.64637 0-1.1814 0.26476-1.605 0.79428-0.41996 0.52586-0.6301 1.2905-0.6301 2.2948 0 0.96773 0.20811 1.7093 0.62442 2.2242 0.41996 0.51125 0.96779 0.76662 1.6434 0.76662 0.53681 0 0.98618-0.15675 1.3477-0.47081 0.36518-0.31771 0.61717-0.7871 0.75594-1.4079l-0.83257-0.12589c-0.23737 0.7961-0.65921 1.194-1.2654 1.194-0.38709 0-0.7156-0.16616-0.98583-0.49847-0.27024-0.33232-0.42221-0.82536-0.45508-1.479h3.5606l0.00567-0.2625c0-0.98234-0.20656-1.7327-0.61922-2.2513-0.41265-0.51856-0.92735-0.77791-1.5445-0.77791zm5.4008 0c-0.32867 0-0.62046 0.080369-0.87609 0.24105-0.25197 0.15703-0.46569 0.39614-0.64098 0.7175v-0.82702h-0.7285v5.8174h0.80513v-3.1771c0-0.70115 0.11479-1.1962 0.34486-1.4847 0.23006-0.28849 0.53866-0.43299 0.92575-0.43299 0.20451 0 0.38354 0.055285 0.53691 0.16484 0.15703 0.1059 0.27229 0.25724 0.34533 0.45444 0.07304 0.1972 0.10928 0.50927 0.10928 0.93654v3.539h0.8108v-3.5774c0-0.53682-0.03266-0.93468-0.09839-1.194-0.06574-0.25928-0.16622-0.46932-0.30134-0.63-0.13146-0.16433-0.30692-0.296-0.52603-0.3946-0.21545-0.10225-0.4511-0.15298-0.70673-0.15298zm4.8152 0c-0.63907 0-1.1634 0.25393-1.5724 0.76154-0.40535 0.50395-0.60787 1.2612-0.60787 2.2728 0 1.0042 0.20097 1.7641 0.60267 2.279 0.40535 0.51125 0.92004 0.76662 1.5445 0.76662 0.51491 0 0.9551-0.1824 1.3203-0.54758 0.36884-0.36518 0.59889-0.89471 0.69018-1.5886l-0.79425-0.12589c-0.05843 0.49665-0.19717 0.86344-0.41628 1.1008-0.21546 0.23372-0.47662 0.35057-0.78337 0.35057-0.39074 0-0.7121-0.17699-0.96407-0.53121-0.24833-0.35423-0.37229-0.92764-0.37229-1.7201 0-0.76688 0.12956-1.3255 0.38884-1.6761 0.26293-0.35423 0.59347-0.53121 0.99151-0.53121 0.26659 0 0.49461 0.09861 0.68451 0.29581 0.18989 0.19355 0.32303 0.48738 0.39972 0.88178l0.78337-0.1479c-0.09494-0.61351-0.31224-1.0735-0.65186-1.3802-0.33597-0.30675-0.75018-0.46008-1.2432-0.46008zm6.732 0c-0.64272 0-1.1375 0.1425-1.4844 0.42734-0.34327 0.28484-0.57129 0.73942-0.6845 1.3639l0.79425 0.13153c0.08764-0.42726 0.22436-0.71768 0.41061-0.87105 0.18624-0.15703 0.46731-0.2354 0.84344-0.2354 0.41631 0 0.72491 0.11685 0.92576 0.35057 0.14242 0.16068 0.21382 0.4397 0.21382 0.83775l-0.00568 0.25234c-0.30675 0.13147-0.78878 0.24433-1.4461 0.33928-0.48934 0.069385-0.85456 0.1774-1.0956 0.32347-0.24102 0.14607-0.43078 0.34871-0.56955 0.60799s-0.20814 0.55654-0.20814 0.8925c0 0.5076 0.14792 0.91144 0.44372 1.2109 0.29579 0.29945 0.69212 0.44879 1.1888 0.44879 0.31406 0 0.61705-0.070968 0.9092-0.21339 0.29215-0.14242 0.57321-0.35446 0.84345-0.63565 0.02556 0.27754 0.08063 0.51722 0.16462 0.71807h0.84344c-0.10225-0.22641-0.17162-0.45868-0.20814-0.69605-0.03286-0.24102-0.04919-0.82128-0.04919-1.7415v-1.3148c0-0.53317-0.03827-0.93844-0.11496-1.216-0.07303-0.27754-0.25206-0.50981-0.53691-0.69605-0.28484-0.18989-0.67759-0.28452-1.1779-0.28452zm16.877 0c-0.64272 0-1.1375 0.1425-1.4844 0.42734-0.34327 0.28484-0.57177 0.73942-0.68497 1.3639l0.79472 0.13153c0.08764-0.42726 0.22436-0.71768 0.41061-0.87105 0.18624-0.15703 0.46731-0.2354 0.84344-0.2354 0.41631 0 0.72491 0.11685 0.92576 0.35057 0.14242 0.16068 0.21382 0.4397 0.21382 0.83775l-0.00568 0.25234c-0.30675 0.13147-0.78878 0.24433-1.4461 0.33928-0.48934 0.069385-0.85456 0.1774-1.0956 0.32347-0.24102 0.14607-0.43078 0.34871-0.56955 0.60799s-0.20815 0.55654-0.20815 0.8925c0 0.5076 0.14793 0.91144 0.44373 1.2109 0.29579 0.29945 0.69212 0.44879 1.1888 0.44879 0.31405 0 0.61705-0.070968 0.9092-0.21339 0.29214-0.14242 0.57321-0.35446 0.84345-0.63565 0.02556 0.27754 0.08062 0.51722 0.16462 0.71807h0.84344c-0.10225-0.22641-0.17162-0.45868-0.20814-0.69605-0.03286-0.24102-0.0492-0.82128-0.0492-1.7415v-1.3148c0-0.53317-0.03873-0.93844-0.11542-1.216-0.07304-0.27754-0.2516-0.50981-0.53644-0.69605-0.28484-0.18989-0.67759-0.28452-1.1779-0.28452zm12.046 0c-0.64638 0-1.1814 0.26476-1.6051 0.79428-0.41996 0.52586-0.6301 1.2905-0.6301 2.2948 0 0.96773 0.20812 1.7093 0.62442 2.2242 0.41996 0.51125 0.96779 0.76662 1.6434 0.76662 0.53681 0 0.98618-0.15675 1.3477-0.47081 0.36519-0.31771 0.61717-0.7871 0.75594-1.4079l-0.83257-0.12589c-0.23737 0.7961-0.6592 1.194-1.2654 1.194-0.38709 0-0.71607-0.16616-0.9863-0.49847-0.27024-0.33232-0.42174-0.82536-0.4546-1.479h3.5606l0.00567-0.2625c0-0.98234-0.20656-1.7327-0.61922-2.2513-0.41265-0.51856-0.92735-0.77791-1.5445-0.77791zm5.0995 0c-0.63907 0-1.1629 0.25393-1.5719 0.76154-0.40536 0.50395-0.60787 1.2612-0.60787 2.2728 0 1.0042 0.20049 1.7641 0.60219 2.279 0.40535 0.51125 0.92052 0.76662 1.545 0.76662 0.5149 0 0.95462-0.1824 1.3198-0.54758 0.36884-0.36518 0.59936-0.89471 0.69066-1.5886l-0.79473-0.12589c-0.05842 0.49665-0.19717 0.86344-0.41628 1.1008-0.21546 0.23372-0.47614 0.35057-0.7829 0.35057-0.39074 0-0.71209-0.17699-0.96407-0.53121-0.24832-0.35423-0.37276-0.92764-0.37276-1.7201 0-0.76688 0.12956-1.3255 0.38884-1.6761 0.26293-0.35423 0.59347-0.53121 0.99151-0.53121 0.26659 0 0.49509 0.09861 0.68498 0.29581 0.18989 0.19355 0.32304 0.48738 0.39973 0.88178l0.78337-0.1479c-0.09495-0.61351-0.31225-1.0735-0.65187-1.3802-0.33596-0.30675-0.75065-0.46008-1.2436-0.46008zm4.9027 0c-0.32866 0-0.62093 0.080369-0.87656 0.24105-0.25198 0.15703-0.46569 0.39614-0.64098 0.7175v-0.82702h-0.7285v5.8174h0.80561v-3.1771c0-0.70115 0.11478-1.1962 0.34485-1.4847 0.23006-0.28849 0.53866-0.43299 0.92576-0.43299 0.2045 0 0.38353 0.055285 0.53691 0.16484 0.15703 0.1059 0.27181 0.25724 0.34485 0.45444 0.07304 0.1972 0.10975 0.50927 0.10975 0.93654v3.539h0.8108v-3.5774c0-0.53682-0.03313-0.93468-0.09886-1.194-0.06574-0.25928-0.16622-0.46932-0.30134-0.63-0.13146-0.16433-0.30644-0.296-0.52555-0.3946-0.21546-0.10225-0.45111-0.15298-0.70674-0.15298zm4.8038 0c-0.64638 0-1.181 0.25536-1.6046 0.76662-0.41996 0.51125-0.6301 1.2691-0.6301 2.2733 0 1.0006 0.2117 1.7584 0.63531 2.2733 0.42726 0.51125 0.96031 0.76662 1.5994 0.76662 0.65002 0 1.1851-0.25536 1.605-0.76662 0.41996-0.51126 0.6301-1.2893 0.6301-2.3337 0-0.96408-0.21372-1.7017-0.64098-2.2129-0.42726-0.51126-0.95876-0.76662-1.5942-0.76662zm7.1596 0c-0.64638 0-1.1814 0.25536-1.6051 0.76662-0.41996 0.51125-0.6301 1.2691-0.6301 2.2733 0 1.0006 0.21217 1.7584 0.63578 2.2733 0.42726 0.51125 0.96031 0.76662 1.5994 0.76662 0.65002 0 1.1851-0.25536 1.605-0.76662 0.41996-0.51126 0.62963-1.2893 0.62963-2.3337 0-0.96408-0.21324-1.7017-0.64051-2.2129-0.42726-0.51126-0.95876-0.76662-1.5942-0.76662zm4.941 0c-0.38344 0-0.73031 0.10944-1.0407 0.32855-0.30675 0.21911-0.55516 0.56225-0.74505 1.0297-0.1899 0.46743-0.28478 1.0132-0.28478 1.6377 0 0.93121 0.21527 1.6748 0.64618 2.2298 0.37614 0.48204 0.849 0.72315 1.4187 0.72315 0.26658 0 0.50939-0.064123 0.7285-0.19194 0.2191-0.12781 0.41649-0.31762 0.59178-0.5696 0 0.65733-0.02396 1.0882-0.07143 1.2927-0.07669 0.33597-0.22056 0.58791-0.43237 0.75589-0.20815 0.17164-0.48969 0.25742-0.84392 0.25742-0.32501 0-0.57854-0.076948-0.76113-0.23032-0.18259-0.14972-0.29225-0.37944-0.32877-0.68984l-0.78905-0.14282c-0.01095 0.58794 0.14972 1.0485 0.48204 1.3808 0.33231 0.33232 0.80719 0.49847 1.4244 0.49847 0.46743 0 0.86734-0.11143 1.1996-0.3342 0.33232-0.21911 0.57155-0.52035 0.71762-0.9038 0.14607-0.37979 0.21902-1.0173 0.21902-1.912v-5.0282h-0.74505v0.70113c-0.17894-0.27754-0.38503-0.48615-0.61875-0.62492-0.23007-0.13877-0.48562-0.20774-0.76681-0.20774zm7.9482 0c-0.64272 0-1.1375 0.1425-1.4844 0.42734-0.34327 0.28484-0.57177 0.73942-0.68497 1.3639l0.79425 0.13153c0.08764-0.42726 0.22483-0.71768 0.41108-0.87105 0.18624-0.15703 0.46731-0.2354 0.84344-0.2354 0.41631 0 0.72491 0.11685 0.92576 0.35057 0.14242 0.16068 0.21382 0.4397 0.21382 0.83775l-0.00568 0.25234c-0.30675 0.13147-0.78878 0.24433-1.4461 0.33928-0.48934 0.069385-0.85456 0.1774-1.0956 0.32347-0.24102 0.14607-0.43078 0.34871-0.56955 0.60799s-0.20815 0.55654-0.20815 0.8925c0 0.5076 0.14793 0.91144 0.44373 1.2109 0.29579 0.29945 0.69212 0.44879 1.1888 0.44879 0.31405 0 0.61705-0.070968 0.9092-0.21339 0.29214-0.14242 0.57321-0.35446 0.84345-0.63565 0.02556 0.27754 0.08015 0.51722 0.16414 0.71807h0.84392c-0.10225-0.22641-0.17162-0.45868-0.20814-0.69605-0.03286-0.24102-0.04967-0.82128-0.04967-1.7415v-1.3148c0-0.53317-0.03826-0.93844-0.11495-1.216-0.07304-0.27754-0.25207-0.50981-0.53691-0.69605-0.28484-0.18989-0.67712-0.28452-1.1774-0.28452zm-228.95 0.13153v3.6039c0 0.53682 0.04386 0.96089 0.13151 1.2713 0.09129 0.3104 0.27033 0.56776 0.53691 0.77226 0.26658 0.20085 0.58794 0.30089 0.96407 0.30089 0.31771 0 0.60236-0.081799 0.85433-0.24613 0.25198-0.16433 0.4713-0.41086 0.65754-0.73952v0.85468h0.72282v-5.8174h-0.81033v3.1167c0 0.73036-0.10609 1.2322-0.31789 1.5061-0.24833 0.31771-0.56611 0.47645-0.9532 0.47645-0.20815 0-0.39434-0.060136-0.55867-0.18065-0.16068-0.12416-0.27189-0.28633-0.33397-0.48718-0.05843-0.2045-0.08799-0.60635-0.08799-1.2052v-3.2262h-0.80513zm25.082 0v5.8174h0.80513v-5.8174h-0.80513zm119.14 0v5.8174h0.80513v-5.8174h-0.80513zm16.877 0v5.8174h0.80513v-5.8174h-0.80513zm9.2737 0 1.8132 5.8281c-0.18625 0.5916-0.29186 0.91307-0.31742 0.9642-0.07303 0.14607-0.16636 0.25352-0.27957 0.3229-0.10956 0.069384-0.25033 0.10444-0.42196 0.10444-0.12781 0-0.28087-0.029636-0.4598-0.088065l0.08751 0.92581c0.19355 0.08034 0.36698 0.12081 0.52035 0.12081 0.21911 0 0.41448-0.056714 0.58611-0.16992 0.17529-0.11321 0.33037-0.2996 0.46548-0.55887 0.13877-0.25563 0.32698-0.76692 0.56435-1.5338l1.8132-5.9156h-0.81081l-1.019 3.3905c-0.12781 0.43091-0.23747 0.87266-0.32877 1.3255-0.1059-0.47839-0.22069-0.92755-0.34485-1.3475l-0.99719-3.3685h-0.87088zm54.307 0v5.8174h0.80513v-5.8174h-0.80513zm-182.75 0.64073c0.36153 0 0.66858 0.1824 0.92056 0.54758 0.25197 0.36518 0.37796 0.92777 0.37796 1.6873 0 0.77053-0.13004 1.34-0.38931 1.7088-0.25928 0.36883-0.56026 0.55323-0.90353 0.55323-0.35788 0-0.6629-0.17699-0.91488-0.53121-0.25197-0.35788-0.37796-0.91306-0.37796-1.6653 0-0.74862 0.13314-1.3181 0.39972-1.7088 0.26659-0.3944 0.56243-0.59162 0.88744-0.59162zm-29.903 0.038387c0.38344 0 0.70122 0.18782 0.9532 0.56396 0.25197 0.37248 0.37796 0.96614 0.37796 1.7805 0 0.70845-0.12599 1.238-0.37796 1.5886-0.25198 0.35058-0.54985 0.52557-0.89312 0.52557-0.34692 0-0.65148-0.1824-0.91441-0.54758-0.25928-0.36518-0.38932-0.92378-0.38932-1.6761 0-0.77053 0.12242-1.3351 0.36709-1.693 0.24467-0.36153 0.53694-0.54194 0.87656-0.54194zm50.812 0c0.4017 0 0.73223 0.18041 0.99151 0.54194 0.17894 0.24832 0.28658 0.62452 0.3231 1.1285h-2.6623c0.02557-0.51125 0.16634-0.91652 0.42196-1.216 0.25563-0.3031 0.56423-0.45444 0.92576-0.45444zm16.356 0c0.4017 0 0.73224 0.18041 0.99152 0.54194 0.17893 0.24832 0.28657 0.62452 0.32309 1.1285h-2.6618c0.02556-0.51125 0.16586-0.91652 0.42149-1.216 0.25562-0.3031 0.56422-0.45444 0.92575-0.45444zm37.659 0c0.38344 0 0.70122 0.18782 0.95319 0.56396 0.25198 0.37248 0.37797 0.96614 0.37797 1.7805 0 0.70845-0.12599 1.238-0.37797 1.5886-0.25197 0.35058-0.54937 0.52557-0.89264 0.52557-0.34693 0-0.65195-0.1824-0.91488-0.54758-0.25928-0.36518-0.38885-0.92378-0.38885-1.6761 0-0.77053 0.12242-1.3351 0.36709-1.693 0.24467-0.36153 0.53647-0.54194 0.87609-0.54194zm5.2915 0c0.4017 0 0.73223 0.18041 0.99151 0.54194 0.17894 0.24832 0.28657 0.62452 0.32309 1.1285h-2.6618c0.02556-0.51125 0.16586-0.91652 0.42149-1.216 0.25563-0.3031 0.56423-0.45444 0.92576-0.45444zm26.074 0c0.4017 0 0.73223 0.18041 0.99151 0.54194 0.17894 0.24832 0.28657 0.62452 0.32309 1.1285h-2.6618c0.02557-0.51125 0.16586-0.91652 0.42149-1.216 0.25563-0.3031 0.56423-0.45444 0.92576-0.45444zm45.871 0c0.4017 0 0.73223 0.18041 0.99151 0.54194 0.17894 0.24832 0.28658 0.62452 0.32309 1.1285h-2.6623c0.02557-0.51125 0.16634-0.91652 0.42196-1.216 0.25563-0.3031 0.56423-0.45444 0.92576-0.45444zm-165.05 0.005645c0.40535 0 0.74506 0.1844 1.019 0.55323 0.27388 0.36518 0.4106 0.92179 0.4106 1.6704 0 0.74497-0.13672 1.3036-0.4106 1.6761-0.27024 0.36883-0.59564 0.55323-0.97543 0.55323-0.40535 0-0.74459-0.1824-1.0185-0.54758-0.27388-0.36883-0.41108-0.92943-0.41108-1.6817 0-0.74497 0.13517-1.3016 0.40541-1.6704 0.27023-0.36883 0.59719-0.55323 0.98063-0.55323zm71.073 0c0.40535 0 0.74506 0.1844 1.0189 0.55323 0.27389 0.36518 0.41108 0.92179 0.41108 1.6704 0 0.74497-0.13719 1.3036-0.41108 1.6761-0.27023 0.36883-0.59516 0.55323-0.97495 0.55323-0.40535 0-0.74506-0.1824-1.019-0.54758-0.27389-0.36883-0.41061-0.92943-0.41061-1.6817 0-0.74497 0.13517-1.3016 0.40541-1.6704 0.27023-0.36883 0.59671-0.55323 0.98016-0.55323zm9.2027 0c0.40535 0 0.74506 0.1844 1.0189 0.55323 0.27389 0.36518 0.41061 0.92179 0.41061 1.6704 0 0.74497-0.13672 1.3036-0.41061 1.6761-0.27023 0.36883-0.59516 0.55323-0.97495 0.55323-0.40535 0-0.74506-0.1824-1.019-0.54758-0.27389-0.36883-0.41061-0.92943-0.41061-1.6817 0-0.74497 0.1347-1.3016 0.40493-1.6704 0.27024-0.36883 0.59719-0.55323 0.98064-0.55323zm99.569 0c0.40535 0 0.74506 0.1844 1.0189 0.55323 0.27389 0.36518 0.41061 0.92179 0.41061 1.6704 0 0.74497-0.13672 1.3036-0.41061 1.6761-0.27023 0.36883-0.59516 0.55323-0.97495 0.55323-0.40535 0-0.74506-0.1824-1.019-0.54758-0.27389-0.36883-0.41108-0.92943-0.41108-1.6817 0-0.74497 0.13517-1.3016 0.4054-1.6704 0.27024-0.36883 0.59719-0.55323 0.98064-0.55323zm7.1596 0c0.40535 0 0.74459 0.1844 1.0185 0.55323 0.27389 0.36518 0.41108 0.92179 0.41108 1.6704 0 0.74497-0.13719 1.3036-0.41108 1.6761-0.27023 0.36883-0.59516 0.55323-0.97495 0.55323-0.40536 0-0.74506-0.1824-1.019-0.54758-0.27389-0.36883-0.41061-0.92943-0.41061-1.6817 0-0.74497 0.13517-1.3016 0.40541-1.6704 0.27023-0.36883 0.59719-0.55323 0.98063-0.55323zm4.9902 0c0.37614 0 0.69547 0.17842 0.9584 0.53629 0.26293 0.35423 0.39452 0.89658 0.39452 1.6269 0 0.74862-0.12801 1.295-0.38364 1.6382s-0.56578 0.51484-0.93096 0.51484-0.67378-0.17556-0.92576-0.52613c-0.25197-0.35058-0.37796-0.90718-0.37796-1.6704 0-0.70115 0.12599-1.2292 0.37796-1.5835 0.25563-0.35788 0.55148-0.53629 0.88744-0.53629zm-202.62 2.2129v0.36129c0 0.47839-0.05817 0.84376-0.17503 1.0957-0.11686 0.24832-0.29434 0.44697-0.53171 0.5967-0.23372 0.14972-0.4944 0.22468-0.7829 0.22468-0.3031 0-0.54077-0.081799-0.71241-0.24613-0.17163-0.16798-0.25734-0.39085-0.25734-0.66839 0-0.17894 0.03671-0.33626 0.10975-0.47137 0.07669-0.13877 0.1823-0.24422 0.31742-0.31726 0.13511-0.076688 0.37279-0.14423 0.71241-0.20266 0.58429-0.10225 1.024-0.22651 1.3198-0.37258zm29.668 0v0.36129c0 0.47839-0.05864 0.84376-0.1755 1.0957-0.11686 0.24832-0.29386 0.44697-0.53123 0.5967-0.23372 0.14972-0.49488 0.22468-0.78337 0.22468-0.3031 0-0.54031-0.081799-0.71194-0.24613-0.17164-0.16798-0.25781-0.39085-0.25781-0.66839 0-0.17894 0.03671-0.33626 0.10974-0.47137 0.07669-0.13877 0.1823-0.24422 0.31742-0.31726 0.13512-0.076688 0.37279-0.14423 0.71241-0.20266 0.58429-0.10225 1.0245-0.22651 1.3203-0.37258zm8.1781 0v0.36129c0 0.47839-0.05864 0.84376-0.1755 1.0957-0.11686 0.24832-0.29387 0.44697-0.53124 0.5967-0.23371 0.14972-0.49487 0.22468-0.78337 0.22468-0.3031 0-0.5403-0.081799-0.71194-0.24613-0.17163-0.16798-0.25733-0.39085-0.25733-0.66839 0-0.17894 0.03623-0.33626 0.10927-0.47137 0.07669-0.13877 0.18277-0.24422 0.31789-0.31726 0.13512-0.076688 0.37232-0.14423 0.71194-0.20266 0.58429-0.10225 1.0245-0.22651 1.3203-0.37258zm33.748 0v0.36129c0 0.47839-0.05864 0.84376-0.1755 1.0957-0.11686 0.24832-0.29387 0.44697-0.53124 0.5967-0.23371 0.14972-0.49487 0.22468-0.78336 0.22468-0.30311 0-0.54031-0.081799-0.71194-0.24613-0.17164-0.16798-0.25734-0.39085-0.25734-0.66839 0-0.17894 0.03624-0.33626 0.10927-0.47137 0.07669-0.13877 0.18277-0.24422 0.31789-0.31726 0.13512-0.076688 0.37232-0.14423 0.71194-0.20266 0.58429-0.10225 1.0245-0.22651 1.3203-0.37258zm42.951 0v0.36129c0 0.47839-0.05864 0.84376-0.1755 1.0957-0.11686 0.24832-0.29387 0.44697-0.53123 0.5967-0.23372 0.14972-0.49488 0.22468-0.78337 0.22468-0.3031 0-0.54031-0.081799-0.71194-0.24613-0.17164-0.16798-0.25734-0.39085-0.25734-0.66839 0-0.17894 0.03624-0.33626 0.10927-0.47137 0.07669-0.13877 0.18278-0.24422 0.31789-0.31726 0.13512-0.076688 0.37232-0.14423 0.71194-0.20266 0.58429-0.10225 1.0245-0.22651 1.3203-0.37258zm33.233 0v0.36129c0 0.47839-0.05817 0.84376-0.17503 1.0957-0.11685 0.24832-0.29386 0.44697-0.53123 0.5967-0.23372 0.14972-0.49488 0.22468-0.78337 0.22468-0.3031 0-0.54078-0.081799-0.71241-0.24613-0.17164-0.16798-0.25734-0.39085-0.25734-0.66839 0-0.17894 0.03671-0.33626 0.10975-0.47137 0.07669-0.13877 0.1823-0.24422 0.31741-0.31726 0.13512-0.076688 0.3728-0.14423 0.71242-0.20266 0.58429-0.10225 1.024-0.22651 1.3198-0.37258zm16.877 0v0.36129c0 0.47839-0.05817 0.84376-0.17503 1.0957-0.11685 0.24832-0.29434 0.44697-0.5317 0.5967-0.23372 0.14972-0.49441 0.22468-0.7829 0.22468-0.3031 0-0.54078-0.081799-0.71241-0.24613-0.17164-0.16798-0.25734-0.39085-0.25734-0.66839 0-0.17894 0.03671-0.33626 0.10975-0.47137 0.07668-0.13877 0.18229-0.24422 0.31741-0.31726 0.13512-0.076688 0.37279-0.14423 0.71241-0.20266 0.5843-0.10225 1.024-0.22651 1.3198-0.37258zm46.9 0v0.36129c0 0.47839-0.05864 0.84376-0.1755 1.0957-0.11686 0.24832-0.29387 0.44697-0.53123 0.5967-0.23372 0.14972-0.49488 0.22468-0.78337 0.22468-0.3031 0-0.54031-0.081799-0.71194-0.24613-0.17164-0.16798-0.25734-0.39085-0.25734-0.66839 0-0.17894 0.03624-0.33626 0.10927-0.47137 0.07669-0.13877 0.18277-0.24422 0.31789-0.31726 0.13512-0.076688 0.37232-0.14423 0.71194-0.20266 0.58429-0.10225 1.0245-0.22651 1.3203-0.37258z" fill="#fff" stroke-width=".26293"/></g><g transform="translate(1.2161)"><path d="m13.262 68.428a11.013 11.013 0 0 0-0.12351 0.0046h-0.06666v0.0026a11.013 11.013 0 0 0-10.823 11.006 11.013 11.013 0 0 0 10.823 11.006v0.0052h0.13539a11.013 11.013 0 0 0 0.05478 0.0021 11.013 11.013 0 0 0 0.05478-0.0021h74.845v-0.0072a11.013 11.013 0 0 0 0.24236 0.0093 11.013 11.013 0 0 0 11.013-11.013 11.013 11.013 0 0 0-11.013-11.013 11.013 11.013 0 0 0-0.24236 0.0093v-0.0047h-74.589a11.013 11.013 0 0 0-0.31058-0.0046z" fill="#036f72" stroke-width=".31466"/><path d="m16.902 73.877c-2.8092-2.2e-5 -5.0865 2.3714-5.0865 5.2968 6e-5 2.9254 2.2774 5.2969 5.0865 5.2968 1.736-4.91e-4 3.352-0.92301 4.286-2.4469l-2.2035-0.61495c-0.53897 0.71203-1.3145 1.1202-2.1296 1.1209-1.5691-1.54e-4 -2.841-1.4815-2.8412-3.3088-1.08e-4 -1.8276 1.2719-3.3092 2.8412-3.3094 0.96949 2e-6 1.8721 0.57568 2.3942 1.527l1.7952-1.3374c-0.95422-1.3953-2.4975-2.2239-4.1424-2.2242zm17.177 0.21342c-0.80678 4.32e-4 -1.5851 0.0025-2.296 0.0026v0.01085h-0.4222v10.364h2.2944v-3.1998h1.6986l1.9498 3.1828 2.6329 0.01809-5.17e-4 0.0016h2.035l0.78341-2.3461h3.7962l0.82941 2.3461h2.0862l-3.8029-10.329h-2.0278l-3.6024 10.058-2.1435-3.6153c0.77289-0.57325 1.3017-1.7334 1.3017-3.0716 0-1.9072-1.3308-3.2571-2.6458-3.4158-0.82446-6e-3 -1.6597-0.0071-2.4665-0.0067zm-9.433 0.02842-3.6995 10.352h2.035l0.78342-2.3513h3.7967l0.82889 2.3513h2.0862l-3.8024-10.352zm25.581 0.02067v10.331h3.451c1.3049-0.0093 2.1279-0.0327 2.4691-0.07028 0.54408-0.06108 1.0006-0.22317 1.3694-0.48628 0.37348-0.2678 0.6664-0.62238 0.8785-1.064 0.21671-0.44634 0.32504-0.90476 0.32504-1.3746 0-0.59668-0.16618-1.1154-0.49816-1.557-0.33198-0.44164-0.69938-0.74591-1.3172-0.92914 0.43803-0.20203 0.67658-0.5132 0.93018-0.91726 0.25821-0.40405 0.38706-0.8483 0.38706-1.3322 0-0.44634-0.10412-0.84802-0.31161-1.2051-0.20749-0.36177-0.46781-0.65049-0.78135-0.86661-0.30893-0.21612-0.6618-0.35746-1.0583-0.42323-0.39192-0.07047-0.98882-0.10542-1.7911-0.10542zm20.263 0v10.331h3.451c1.3049-0.0093 2.1279-0.0327 2.4691-0.07028 0.54408-0.06108 1.0006-0.22317 1.3694-0.48628 0.37348-0.2678 0.66692-0.62238 0.87902-1.064 0.21671-0.44634 0.32453-0.90476 0.32453-1.3746 0-0.59668-0.16566-1.1154-0.49764-1.557s-0.69938-0.74591-1.3172-0.92914c0.43803-0.20203 0.67606-0.5132 0.92966-0.91726 0.25821-0.40405 0.38757-0.8483 0.38757-1.3322 0-0.44634-0.10412-0.84802-0.31161-1.2051-0.20749-0.36177-0.46833-0.65049-0.78186-0.86661-0.30893-0.21612-0.66128-0.35746-1.0578-0.42323-0.39192-0.07047-0.98934-0.10542-1.7916-0.10542zm-6.0968 0.0124a5.0271 5.1594 0 0 0-5.0271 5.1594 5.0271 5.1594 0 0 0 5.0271 5.1594 5.0271 5.1594 0 0 0 5.0271-5.1594 5.0271 5.1594 0 0 0-5.0271-5.1594zm20.373 0a5.0271 5.1594 0 0 0-5.0271 5.1594 5.0271 5.1594 0 0 0 5.0271 5.1594 5.0271 5.1594 0 0 0 5.0271-5.1594 5.0271 5.1594 0 0 0-5.0271-5.1594zm-20.423 1.819a2.8277 3.3404 0 0 1 2.8277 3.3404 2.8277 3.3404 0 0 1-2.8277 3.3404 2.8277 3.3404 0 0 1-2.8277-3.3404 2.8277 3.3404 0 0 1 2.8277-3.3404zm20.373 0a2.8277 3.3404 0 0 1 2.8277 3.3404 2.8277 3.3404 0 0 1-2.8277 3.3404 2.8277 3.3404 0 0 1-2.8277-3.3404 2.8277 3.3404 0 0 1 2.8277-3.3404zm-51.061 0.18914h2.3647c0.54498 0.17679 1.0545 0.80971 1.0671 1.4872-3.98e-4 0.76306-0.39835 1.4126-1.0625 1.5374h-2.3694zm18.8 0.07906h0.99374c0.96366 0 1.5469 0.01165 1.7498 0.03514 0.3412 0.04228 0.77034 0.37601 0.7674 0.82166-0.0029 0.44564-0.10652 1.0184-0.86403 1.1167-0.19366 0.02349-0.68906 0.03514-1.4867 0.03514h-1.1601zm20.263 0h0.99374c0.96366 0 1.5464 0.01165 1.7492 0.03514 0.3412 0.04228 0.77086 0.37601 0.76791 0.82166-0.0029 0.44564-0.10703 1.0184-0.86455 1.1167-0.19366 0.02349-0.68906 0.03514-1.4867 0.03514h-1.1596zm-47.082 0.29456 1.309 3.8416h-2.5916zm18.99 0.01809 1.309 3.8328h-2.5916zm7.829 3.6473h1.4712c0.93139 0 1.5351 0.04965 1.8118 0.14831 0.4837 0.19972 0.76252 0.62465 0.76533 1.0294 0.0056 0.67512-0.34436 1.0494-0.93121 1.1612-0.19827 0.04229-0.66631 0.06356-1.404 0.06356h-1.7131zm20.263 0h1.4712c0.93139 0 1.5346 0.04965 1.8113 0.14831 0.4837 0.19972 0.76304 0.62465 0.76584 1.0294 0.0056 0.67512-0.34436 1.0494-0.93121 1.1612-0.19827 0.04229-0.66631 0.06356-1.404 0.06356h-1.7131z" fill="#fff" stroke-width=".26518"/></g><g transform="translate(71.936 -101.4)"><g fill="#1d6fb8"><g stroke-width=".26458"><path d="m-59.17 106.01-7.0047 3e-3v51.268h11.798v-20.311h19.07v-9.4036h-19.07v-11.177h23.062v-10.379z"/><path d="m-27.722 119.8v24.486c0.05847 4.5827 0.80636 8.5531 4.1362 11.15 4.932 3.4978 11.96 2.6745 15.87 0.87798 2.9292-1.3459 5.3072-3.5148 6.9954-5.2798 0.018841 0.82837 0.25025 4.3961 2.821 5.7506 2.9168 1.5368 9.0956 0.43874 9.0956 0.43874l-0.78393-9.6599s-0.78429-0.0943-1.1607-0.84698c-0.37098-0.74194-0.46705-2.2386-0.46974-2.2815v-24.635h-11.355v22.945c-0.6944 1.1923-1.5933 2.4832-2.6288 3.3729-2.9888 2.568-7.3254 2.3022-8.8315 1.1922-1.3544-0.99822-2.2042-3.2154-2.3342-4.3972v-23.113z"/><path d="m42.104 119.23c-2.9724-0.0306-5.8411 0.7199-7.9184 1.6743-2.5862 1.1882-4.7435 3.0774-6.3753 4.7563v-5.9898h-10.29v37.613h11.355v-21.51c0.77932-1.3906 1.9724-3.1866 3.4866-4.423 2.7887-2.277 6.3844-2.0516 7.8905-0.94155 1.3626 1.0043 2.1081 2.9759 2.2138 4.1114v22.63h11.355v-25.459c0.01369-3.3366-1.3337-8.0563-4.0788-10.16-2.3119-1.6396-5.0151-2.2747-7.6378-2.3017z"/></g><path d="m87.943 104.66v21.703l-0.25011 0.0284c-2.2282-4.7591-7.2875-6.9534-12.352-6.9691-1.6881-5e-3 -3.377 0.23148-4.9615 0.69608-8.7191 3.0109-13.737 14.114-10.538 25.028 3.1991 10.915 12.748 13.549 19.032 12.708 5.4924-0.73499 9.3807-4.6993 10.908-6.5247 0.0866 1.2391 0.53382 4.1612 2.8029 5.3568 2.9168 1.5368 9.0956 0.43925 9.0956 0.43925l-0.78445-9.6599s-0.78377-0.0943-1.1601-0.84698c-0.26381-0.52761-0.38749-1.4313-0.43873-1.9301v-40.029zm-8.3106 24.492a9.0014 9.6286 0 0 1 8.3106 5.9573v7.3686a9.0014 9.6286 0 0 1-8.3106 5.9314 9.0014 9.6286 0 0 1-9.0015-9.6289 9.0014 9.6286 0 0 1 9.0015-9.6284z" stroke-width=".33919"/><path d="m123.29 119.12c-5.6768 0.0314-10.789 2.2267-12.514 3.0422-1.725 0.81545-3.638 1.8505-3.638 1.8505l3.5755 7.6218s5.2692-3.5756 9.5033-4.2028c4.137-0.29587 10.159 0.43048 10.099 5.6141-1e-3 0.0368 0.0151 0.0707 0.0434 0.10284v2.5874c-1.1886-0.88203-3.8848-2.1936-9.2956-2.0004-8.7818 0.31364-14.803 4.3908-15.556 10.977-0.75981 6.6483 3.6761 11.428 10.036 12.797 4.3943 0.94528 9.3464-0.0628 13.361-3.0737 1.4721-1.1041 2.5582-2.635 3.3517-4.176l-0.0584 0.59893s-0.0937 4.3905 2.8231 5.9273c2.9168 1.5368 9.095 0.43924 9.095 0.43924l-0.78393-9.6599s-0.78428-0.0943-1.1606-0.84698c-0.30507-0.61013-0.42297-1.7226-0.45734-2.127 0.0753-3.4023-0.0121-9.5589-0.1018-11.659-0.11575-1.2759-0.72156-6.0218-3.4866-8.7628-3.6068-3.5754-9.4707-5.0795-14.835-5.0498zm0.86455 20.861c2.1471-0.027 4.3819 0.60855 6.2043 1.3219v4.5465c-1.3319 1.4592-3.5908 2.9781-6.4725 3.6938-3.2718 0.81262-7.2805-0.81082-7.6843-3.9832-0.38995-3.0641 1.7248-4.9242 6.9939-5.5201 0.31625-0.0358 0.63661-0.0549 0.9586-0.0589z" stroke-width=".26458"/><path d="m167.8 119.24c-12.357-0.0314-20.366 8.6921-20.386 19.414-0.022 11.498 9.1274 19.414 20.386 19.414 8.33-3e-3 14.293-3.868 17.87-10.084l-11.238-3.4241c-1.6205 2.4257-3.9317 3.6702-6.5914 3.6704-4.7289 0-8.5624-4.4094-8.5623-9.8485 9e-5 -5.4389 3.5696-9.3601 8.2984-9.3601 2.636 1e-3 5.1912 1.0887 6.8129 3.479l11.18-3.3641c-3.6107-6.1136-9.2058-9.7862-17.769-9.8971z" stroke-width=".26947"/><path d="m186.3 139.19c4.5733-3.0797 11.97-9.3211 17.062-6.8373 1.8218 0.93555 1.1291 2.5718 0.12545 4.0773s-4.7045 5.7709-6.4609 7.3391c-4.7954 4.0023-7.3486 7.6475-7.2137 13.047 2.8591-10.018 12.185-10.891 18.128-17.375 1.7772-2.0406 5.1153-6.5482 5.8336-11.918 0.43281-9.5656-2.8793-14.335-11.228-18.379 3.8912 3.5864 8.7574 11.435 5.9591 15.745-2.0308 2.8994-2.6346 3.0383-8.7818 4.2928-4.8744 0.99477-7.9664 3.2345-10.538 6.1199-1.1812 1.3253-2.8855 3.8891-2.8855 3.8891z" stroke-width=".26458"/><path d="m238.23 107.78v12.065h-4.9899v8.8263h4.9899c0.24318 6.6722-0.35242 16.407 0.10232 21.496 0.55915 5.2447 5.4149 7.9306 11.165 7.7468 4.3282 0 10.758-2.8856 10.758-2.8856l-2.1957-9.0325s-2.3211 0.87786-3.1993 1.1601c-0.87819 0.28227-3.199 0.65871-4.3594-0.59583-0.59087-0.63879-0.79934-1.6041-0.87178-2.1316v-15.757h7.8729v-8.8263h-7.8729v-12.065z" stroke-width=".26458"/><path d="m282.01 119.31c-12.382-0.0886-20.492 8.6581-20.492 19.338-9e-5 10.68 8.5978 19.339 20.492 19.339 7.8013-0.0889 14.202-2.9268 18.297-10.156l-9.7386-2.805c-1.546 2.7747-4.7727 4.5986-8.0699 4.6001-4.6572-6e-3 -8.1478-3.1824-8.5005-7.6067h12.57l5.2e-4 -3e-3h15.62c0.20842-1.1121 0.31321-2.2394 0.31316-3.3688-2e-4 -10.68-8.2875-19.338-20.492-19.338zm-0.12367 8.2584c4.3094 1.6e-4 7.9044 2.9291 8.4048 7.3546h-16.871c0.5004-4.4249 4.1572-7.3536 8.466-7.3546z" stroke-width=".2911"/></g><g><circle cx="198.53" cy="151.93" r="2.267" fill="#662e8d" stroke-width=".26458"/><circle cx="205.43" cy="153.15" r="2.7442" fill="#662e8d" stroke-width=".26458"/><circle cx="212.46" cy="151.93" r="3.171" fill="#ee8429" stroke-width=".28128"/><g fill="#076b77"><circle cx="220.42" cy="148.04" r="3.8181" stroke-width=".26458"/><circle cx="223.28" cy="140.73" r="3.3469" stroke-width=".27489"/><circle cx="223.4" cy="133.48" r="2.8445" stroke-width=".28671"/></g><circle cx="221.4" cy="127.43" r="2.267" fill="#662e8d" stroke-width=".26458"/><circle cx="217.41" cy="124.23" r="1.6575" fill="#ee8429" stroke-width=".33413"/><circle cx="221.46" cy="121.88" r="1.7079" fill="#0aaca6" stroke-width=".29133"/><circle cx="226.01" cy="119.34" r="1.6831" fill="#662e8d" stroke-width=".26458"/><circle cx="216.69" cy="119.34" r="1.6704" fill="#1d6fb8" stroke-width=".26458"/><circle cx="203.36" cy="122.29" r="4.2387" fill="#41225b" stroke-width=".26856"/></g><g fill="#b3b3b3"><path d="m214.23 111.76c0.16208 0.19389 0.27384 0.39524 0.27595 0.58291 3e-3 0.2742-0.0621 0.51148-0.17104 0.70434l15.494 0.11939c-0.16208-0.31145-0.13421-0.76135 0.078-1.1974 0.0137-0.0282 0.0266-0.0579 0.0388-0.0884z" stroke-width=".25379"/><path d="m215.66 115.27c0.0997 0.14708 0.16326 0.29549 0.16484 0.43615 3e-3 0.33868-0.0966 0.62064-0.25476 0.83251l12.508 0.32918c-0.13603-0.30867-0.1004-0.73498 0.10127-1.1493 0.018-0.0369 0.0339-0.0766 0.0491-0.1173z" stroke-width=".23195"/><path d="m214.11 130.37c-0.11361 0.50151-0.24762 0.99318-0.39897 1.4743l6.8947 2.1539a2.8445 2.8445 0 0 1-0.0491-0.51676 2.8445 2.8445 0 0 1 0.19534-1.0366z" stroke-width=".26865"/><path d="m211.55 136.62c-0.27612 0.46809-0.55737 0.91084-0.83613 1.3276l9.2361 3.128a3.3469 3.3469 0 0 1-0.0207-0.3514 3.3469 3.3469 0 0 1 0.22014-1.1922z" stroke-width=".32069"/><path d="m207.11 142.21c-0.44141 0.39278-0.89553 0.76408-1.3586 1.1193l10.903 4.1067a3.8181 3.8181 0 0 1 0.53882-1.4274z" stroke-width=".32069"/></g><g fill="#076b77" stroke-width=".26458"><path d="m212.97 110.75s1.5277 0.88679 1.5356 1.5862c9e-3 0.79681-0.5587 1.2825-1.0988 1.2695-0.83244 1e-3 -1.041-0.82216-0.66161-1.6015 0.22404-0.46024 0.22479-1.2542 0.22479-1.2542z"/><path d="m214.29 114.12s1.5277 0.88679 1.5356 1.5862c9e-3 0.79681-0.5587 1.2825-1.0988 1.2695-0.83244 1e-3 -1.041-0.82216-0.66161-1.6015 0.22404-0.46024 0.22479-1.2542 0.22479-1.2542z"/><path d="m228.41 114.46s1.5277 0.88679 1.5356 1.5862c9e-3 0.79681-0.5587 1.2825-1.0988 1.2695-0.83244 1e-3 -1.041-0.82216-0.66161-1.6015 0.22404-0.46024 0.22479-1.2542 0.22479-1.2542z"/><path d="m230.13 110.71s1.5277 0.88679 1.5356 1.5862c9e-3 0.79681-0.5587 1.2825-1.0988 1.2695-0.83244 1e-3 -1.041-0.82216-0.66161-1.6015 0.22404-0.46024 0.22479-1.2542 0.22479-1.2542z"/></g></g></svg>
