<svg width="379.22mm" height="356.368" viewBox="0 0 379.22 94.289" xml:space="preserve" xmlns="http://www.w3.org/2000/svg"><path d="M14.478 68.428a11.013 11.013 0 0 0-.123.005h-.067v.002A11.013 11.013 0 0 0 3.465 79.441a11.013 11.013 0 0 0 10.823 11.006v.005h.135a11.013 11.013 0 0 0 .055.002 11.013 11.013 0 0 0 .055-.002h74.845v-.007a11.013 11.013 0 0 0 .242.01 11.013 11.013 0 0 0 11.013-11.014A11.013 11.013 0 0 0 89.62 68.428a11.013 11.013 0 0 0-.242.01v-.005h-74.59a11.013 11.013 0 0 0-.31-.005zm3.64 5.449c1.645 0 3.188.829 4.143 2.224l-1.796 1.337c-.522-.951-1.424-1.527-2.394-1.527-1.569 0-2.841 1.482-2.841 3.31 0 1.827 1.272 3.308 2.841 3.309.815-.001 1.59-.41 2.13-1.121l2.203.615c-.934 1.524-2.55 2.446-4.286 2.447-2.809 0-5.086-2.372-5.086-5.297 0-2.926 2.277-5.297 5.086-5.297zm17.177.213c.807 0 1.642 0 2.467.007 1.315.159 2.646 1.509 2.646 3.416 0 1.338-.53 2.498-1.302 3.071l2.143 3.616 3.603-10.058h2.028l3.802 10.329h-2.086l-.83-2.346h-3.795l-.784 2.346h-2.035v-.002l-2.632-.018-1.95-3.183h-1.699v3.2h-2.294V74.104h.422v-.01c.711-.001 1.49-.003 2.296-.003zm-9.433.029h2.029l3.802 10.352h-2.086l-.83-2.352h-3.796l-.783 2.352h-2.035l3.7-10.352zm25.581.02h4.053c.802 0 1.399.035 1.79.106a2.547 2.547 0 0 1 1.84 1.29c.208.357.312.758.312 1.205 0 .484-.129.928-.387 1.332-.254.404-.492.715-.93.917.618.183.985.488 1.317.93.332.44.498.96.498 1.556 0 .47-.108.929-.325 1.375a2.742 2.742 0 0 1-.878 1.064c-.37.263-.826.425-1.37.486-.341.038-1.164.061-2.469.07h-3.45V74.14zm20.263 0h4.053c.802 0 1.4.035 1.791.106a2.545 2.545 0 0 1 1.84 1.29c.207.357.312.758.312 1.205 0 .484-.13.928-.388 1.332-.254.404-.492.715-.93.917.618.183.986.488 1.318.93.332.44.497.96.497 1.556 0 .47-.108.929-.324 1.375a2.744 2.744 0 0 1-.88 1.064c-.368.263-.825.425-1.369.486-.341.038-1.164.061-2.469.07h-3.45V74.14zm-6.097.013a5.027 5.16 0 0 1 5.028 5.16 5.027 5.16 0 0 1-5.028 5.159 5.027 5.16 0 0 1-5.027-5.16 5.027 5.16 0 0 1 5.027-5.16zm20.373 0a5.027 5.16 0 0 1 5.028 5.16 5.027 5.16 0 0 1-5.028 5.159 5.027 5.16 0 0 1-5.027-5.16 5.027 5.16 0 0 1 5.027-5.16zM65.56 75.97a2.828 3.34 0 0 0-2.827 3.34 2.828 3.34 0 0 0 2.827 3.34 2.828 3.34 0 0 0 2.828-3.34 2.828 3.34 0 0 0-2.828-3.34zm20.373 0a2.828 3.34 0 0 0-2.827 3.34 2.828 3.34 0 0 0 2.827 3.34 2.828 3.34 0 0 0 2.828-3.34 2.828 3.34 0 0 0-2.828-3.34zm-51.06.189v3.024h2.369c.664-.124 1.062-.774 1.062-1.537-.012-.677-.522-1.31-1.067-1.487h-2.364zm18.8.079v2.009h1.16c.797 0 1.293-.012 1.486-.036.758-.098.861-.67.864-1.116.003-.446-.426-.78-.767-.822-.203-.023-.786-.035-1.75-.035h-.994zm20.262 0v2.009h1.16c.798 0 1.293-.012 1.487-.036.757-.098.861-.67.864-1.116.003-.446-.426-.78-.768-.822-.203-.023-.785-.035-1.749-.035h-.994zm-47.082.294-1.282 3.842h2.591l-1.309-3.842zm18.99.019-1.282 3.832h2.591l-1.309-3.832zm7.83 3.647V82.6h1.713c.737 0 1.205-.021 1.404-.063.586-.112.936-.486.93-1.161-.002-.405-.28-.83-.765-1.03-.276-.099-.88-.148-1.811-.148H53.67zm20.262 0V82.6h1.714c.737 0 1.205-.021 1.404-.063.586-.112.936-.486.93-1.161-.002-.405-.281-.83-.765-1.03-.277-.099-.88-.148-1.811-.148h-1.472z" fill="#036f72"/><g fill="#1d6fb8"><g stroke-width=".265"><path d="m12.766 4.61-7.005.003v51.268H17.56V35.57h19.07v-9.404H17.56V14.99h23.062V4.61zM44.214 18.4v24.486c.058 4.583.806 8.553 4.136 11.15 4.932 3.498 11.96 2.674 15.87.878 2.93-1.346 5.307-3.515 6.996-5.28.018.829.25 4.396 2.82 5.75 2.917 1.538 9.096.44 9.096.44l-.784-9.66s-.784-.095-1.16-.847c-.371-.742-.467-2.239-.47-2.282V18.4H69.363v22.945c-.695 1.192-1.593 2.483-2.629 3.373-2.989 2.568-7.325 2.302-8.831 1.192-1.355-.998-2.205-3.215-2.335-4.397V18.4zM114.04 17.83c-2.972-.03-5.841.72-7.918 1.674-2.587 1.188-4.744 3.078-6.376 4.757v-5.99h-10.29v37.613h11.355v-21.51c.78-1.39 1.973-3.187 3.487-4.423 2.789-2.277 6.384-2.052 7.89-.942 1.363 1.005 2.108 2.976 2.214 4.112v22.63h11.355V30.29c.014-3.336-1.333-8.056-4.079-10.16-2.311-1.639-5.015-2.274-7.637-2.301z"/></g><path d="M159.879 3.26v21.703l-.25.028c-2.228-4.759-7.288-6.953-12.352-6.969a17.541 17.541 0 0 0-4.962.696c-8.719 3.011-13.737 14.114-10.538 25.028 3.2 10.915 12.748 13.55 19.032 12.708 5.493-.735 9.381-4.699 10.908-6.524.087 1.239.534 4.16 2.803 5.356 2.917 1.537 9.096.44 9.096.44l-.785-9.66s-.783-.094-1.16-.847c-.263-.528-.387-1.431-.438-1.93V3.259zm-8.31 24.492a9.001 9.629 0 0 1 8.31 5.957v7.369a9.001 9.629 0 0 1-8.31 5.931 9.001 9.629 0 0 1-9.002-9.629 9.001 9.629 0 0 1 9.001-9.628zM195.226 17.72c-5.677.031-10.789 2.227-12.514 3.042-1.725.816-3.638 1.85-3.638 1.85l3.575 7.623s5.27-3.576 9.504-4.203c4.137-.296 10.159.43 10.099 5.614a.15.15 0 0 0 .043.103v2.587c-1.188-.882-3.885-2.194-9.295-2-8.782.313-14.803 4.39-15.556 10.977-.76 6.648 3.676 11.428 10.036 12.797 4.394.945 9.346-.063 13.36-3.074 1.473-1.104 2.559-2.635 3.352-4.176l-.058.599s-.094 4.39 2.823 5.927 9.095.44 9.095.44l-.784-9.66s-.784-.095-1.16-.847c-.306-.61-.424-1.723-.458-2.127.075-3.403-.012-9.56-.102-11.66-.115-1.275-.721-6.021-3.486-8.762-3.607-3.576-9.471-5.08-14.835-5.05zm.865 20.861c2.147-.027 4.381.609 6.204 1.322v4.546c-1.332 1.46-3.59 2.979-6.473 3.694-3.271.813-7.28-.81-7.684-3.983-.39-3.064 1.725-4.924 6.994-5.52.316-.036.637-.055.959-.059zM239.736 17.84c-12.357-.031-20.366 8.692-20.386 19.414-.022 11.498 9.127 19.414 20.386 19.414 8.33-.003 14.293-3.868 17.87-10.084l-11.238-3.424c-1.62 2.426-3.932 3.67-6.591 3.67-4.73 0-8.563-4.41-8.563-9.848 0-5.44 3.57-9.36 8.299-9.36 2.636 0 5.19 1.088 6.813 3.479l11.18-3.364c-3.611-6.114-9.206-9.787-17.77-9.898zM258.236 37.79c4.573-3.08 11.97-9.321 17.062-6.837 1.822.935 1.13 2.571.125 4.077s-4.704 5.77-6.46 7.34c-4.796 4.001-7.35 7.647-7.214 13.046 2.859-10.018 12.185-10.89 18.128-17.375 1.777-2.04 5.115-6.548 5.833-11.918.433-9.566-2.879-14.335-11.228-18.379 3.892 3.586 8.758 11.435 5.96 15.745-2.031 2.9-2.635 3.038-8.782 4.293-4.875.995-7.967 3.234-10.538 6.12-1.181 1.325-2.886 3.889-2.886 3.889zM310.166 6.38v12.065h-4.99v8.826h4.99c.243 6.672-.352 16.407.102 21.496.56 5.245 5.415 7.93 11.165 7.747 4.329 0 10.758-2.886 10.758-2.886l-2.195-9.032s-2.321.878-3.2 1.16c-.878.282-3.199.659-4.36-.596-.59-.639-.798-1.604-.87-2.131V27.272h7.872v-8.827h-7.873V6.38zM353.946 17.91c-12.382-.089-20.492 8.658-20.492 19.338 0 10.68 8.598 19.339 20.492 19.339 7.801-.089 14.202-2.927 18.297-10.156l-9.739-2.805c-1.546 2.775-4.772 4.599-8.07 4.6-4.657-.006-8.147-3.182-8.5-7.607h12.57v-.003h15.62a18.28 18.28 0 0 0 .314-3.368c0-10.68-8.288-19.338-20.492-19.338zm-.124 8.258c4.31 0 7.905 2.93 8.405 7.355h-16.87c.5-4.425 4.156-7.354 8.465-7.355z"/></g><g transform="translate(71.936 -101.4)"><circle cx="198.53" cy="151.93" r="2.267" fill="#662e8d"/><circle cx="205.43" cy="153.15" r="2.744" fill="#662e8d"/><circle cx="212.46" cy="151.93" r="3.171" fill="#ee8429"/><g fill="#076b77"><circle cx="220.42" cy="148.04" r="3.818"/><circle cx="223.28" cy="140.73" r="3.347"/><circle cx="223.4" cy="133.48" r="2.845"/></g><circle cx="221.4" cy="127.43" r="2.267" fill="#662e8d"/><circle cx="217.41" cy="124.23" r="1.657" fill="#ee8429"/><circle cx="221.46" cy="121.88" r="1.708" fill="#0aaca6"/><circle cx="226.01" cy="119.34" r="1.683" fill="#662e8d"/><circle cx="216.69" cy="119.34" r="1.67" fill="#1d6fb8"/><circle cx="203.36" cy="122.29" r="4.239" fill="#41225b"/></g><g fill="#b3b3b3"><path d="M286.166 10.36c.162.194.274.395.276.583.003.274-.062.511-.171.704l15.494.12c-.162-.312-.134-.762.078-1.198.014-.028.027-.058.039-.088zM287.596 13.87c.1.147.163.295.165.436.003.339-.097.62-.255.833l12.508.329c-.136-.309-.1-.735.101-1.15.018-.036.034-.076.05-.117zM286.046 28.97a18.63 18.63 0 0 1-.399 1.474l6.895 2.154a2.845 2.845 0 0 1-.05-.517 2.845 2.845 0 0 1 .196-1.036zM283.486 35.22c-.276.468-.557.91-.836 1.328l9.236 3.128a3.347 3.347 0 0 1-.02-.352 3.347 3.347 0 0 1 .22-1.192zM279.046 40.81c-.441.393-.896.764-1.359 1.12l10.903 4.106a3.818 3.818 0 0 1 .54-1.427z"/></g><g fill="#076b77" stroke-width=".265"><path d="M284.906 9.35s1.528.887 1.536 1.586c.009.797-.56 1.283-1.1 1.27-.832 0-1.04-.822-.66-1.602.223-.46.224-1.254.224-1.254zM286.226 12.72s1.528.887 1.536 1.586c.009.797-.56 1.283-1.1 1.27-.832 0-1.04-.822-.66-1.602.223-.46.224-1.254.224-1.254zM300.346 13.06s1.528.887 1.536 1.586c.009.797-.56 1.283-1.1 1.27-.832 0-1.04-.822-.66-1.602.223-.46.224-1.254.224-1.254zM302.066 9.31s1.528.887 1.536 1.586c.009.797-.56 1.283-1.1 1.27-.832 0-1.04-.822-.66-1.602.223-.46.224-1.254.224-1.254z"/></g></svg>